# MagicaVoxel @ Ephtracy

# group
o 

# material
mtllib chr a.mtl
usemtl palette

# normals
vn -1 0 0
vn 1 0 0
vn 0 0 1
vn 0 0 -1
vn 0 -1 0
vn 0 1 0

# texcoords
vt 0.419922 0.5
vt 0.826172 0.5
vt 0.833984 0.5
vt 0.841797 0.5
vt 0.857422 0.5
vt 0.861328 0.5
vt 0.931641 0.5
vt 0.935547 0.5
vt 0.951172 0.5
vt 0.955078 0.5

# verts
v -1.3 0.9 0.5
v -1.3 0.9 0.3
v -1.3 1.2 0.5
v -1.3 1.2 0.3
v -1.3 1.4 0.6
v -1.3 1.4 0.2
v -1.3 1.5 0.6
v -1.3 1.5 0.2
v -1.2 0.6 0.6
v -1.2 0.6 0.2
v -1.2 0.8 0.6
v -1.2 0.8 0.2
v -1.2 1.2 0.5
v -1.2 1.2 0.3
v -1.2 1.4 0.5
v -1.2 1.4 0.3
v -1.2 1.5 0.6
v -1.2 1.5 0.2
v -1.2 1.6 0.6
v -1.2 1.6 0.2
v -1.1 0.8 0.6
v -1.1 0.8 0.2
v -1.1 0.9 0.6
v -1.1 0.9 0.2
v -1 0.9 0.6
v -1 0.9 0.2
v -1 1 0.6
v -1 1 0.2
v -1 1.3 0.6
v -1 1.3 0.2
v -1 1.4 0.7
v -1 1.4 0.6
v -1 1.4 0.2
v -1 1.4 0.1
v -1 1.6 0.7
v -1 1.6 0.6
v -1 1.6 0.2
v -1 1.6 0.1
v -1 1.7 0.6
v -1 1.7 0.2
v -0.9 0 0.7
v -0.9 0 0.1
v -0.9 0.1 0.7
v -0.9 0.1 0.6
v -0.9 0.1 0.2
v -0.9 0.1 0.1
v -0.9 0.7 0.6
v -0.9 0.7 0.2
v -0.9 0.8 0.7
v -0.9 0.8 0.6
v -0.9 0.9 0.2
v -0.9 0.9 0.1
v -0.9 1 0.7
v -0.9 1 0.6
v -0.9 1 0.2
v -0.9 1 0.1
v -0.9 1.2 0.6
v -0.9 1.2 0.2
v -0.9 1.3 0.6
v -0.9 1.3 0.2
v -0.8 0.7 0.6
v -0.8 0.7 0.2
v -0.8 0.7 0.1
v -0.8 0.8 0.6
v -0.8 0.9 0.6
v -0.8 0.9 0.2
v -0.8 0.9 0.1
v -0.8 1.2 0.7
v -0.8 1.2 0.6
v -0.8 1.2 0.2
v -0.8 1.2 0.1
v -0.8 1.4 0.7
v -0.8 1.4 0.6
v -0.8 1.4 0.2
v -0.8 1.4 0.1
v -0.8 1.7 0.6
v -0.8 1.7 0.2
v -0.8 2 0.6
v -0.8 2 0.2
v -0.7 1.6 0.5
v -0.7 1.6 0.4
v -0.7 1.6 0.3
v -0.7 1.6 0.2
v -0.7 1.7 0.5
v -0.7 1.7 0.4
v -0.7 1.7 0.3
v -0.7 1.7 0.2
v -0.5 0 0.7
v -0.5 0 0.2
v -0.5 0.1 0.7
v -0.5 0.1 0.6
v -0.5 0.1 0.3
v -0.5 0.1 0.2
v -0.5 0.6 0.6
v -0.5 0.6 0.3
v -0.5 1.4 0.7
v -0.5 1.4 0.6
v -0.5 1.4 0.2
v -0.5 1.4 0.1
v -0.5 1.6 0.7
v -0.5 1.6 0.6
v -0.5 1.6 0.2
v -0.5 1.6 0.1
v -0.5 1.7 0.6
v -0.5 1.7 0.2
v -0.4 0.8 0.6
v -0.4 0.8 0.2
v -0.4 0.9 0.6
v -0.4 0.9 0.2
v -0.3 0.7 0.6
v -0.3 0.7 0.2
v -0.3 0.8 0.6
v -0.3 0.8 0.2
v -0.2 0.6 0.6
v -0.2 0.6 0.2
v -0.2 0.7 0.6
v -0.2 0.7 0.2
v -0.2 1.1 0.5
v -0.2 1.1 0.3
v -0.2 1.4 0.5
v -0.2 1.4 0.3
v -0.0999999 0.9 0.5
v -0.0999999 0.9 0.3
v -0.0999999 1.1 0.5
v -0.0999999 1.1 0.3
v -1.2 0.9 0.5
v -1.2 0.9 0.3
v -1.2 1.1 0.5
v -1.2 1.1 0.3
v -1.1 0.6 0.6
v -1.1 0.6 0.2
v -1.1 0.7 0.6
v -1.1 0.7 0.2
v -1.1 1.1 0.5
v -1.1 1.1 0.3
v -1.1 1.4 0.5
v -1.1 1.4 0.3
v -1 0.7 0.6
v -1 0.7 0.2
v -1 0.8 0.6
v -1 0.8 0.2
v -0.9 0.8 0.6
v -0.9 0.8 0.2
v -0.9 0.9 0.6
v -0.9 0.9 0.2
v -0.8 0 0.7
v -0.8 0 0.1
v -0.8 0.1 0.7
v -0.8 0.1 0.6
v -0.8 0.1 0.2
v -0.8 0.1 0.1
v -0.8 0.6 0.6
v -0.8 0.6 0.2
v -0.8 1.4 0.7
v -0.8 1.4 0.6
v -0.8 1.4 0.2
v -0.8 1.4 0.1
v -0.8 1.6 0.7
v -0.8 1.6 0.6
v -0.8 1.6 0.4
v -0.8 1.6 0.3
v -0.8 1.6 0.2
v -0.8 1.6 0.1
v -0.8 1.7 0.6
v -0.8 1.7 0.4
v -0.8 1.7 0.3
v -0.8 1.7 0.2
v -0.6 1.6 0.5
v -0.6 1.6 0.2
v -0.6 1.7 0.5
v -0.6 1.7 0.2
v -0.5 0.7 0.6
v -0.5 0.7 0.2
v -0.5 0.7 0.1
v -0.5 0.8 0.6
v -0.5 0.9 0.6
v -0.5 0.9 0.2
v -0.5 0.9 0.1
v -0.5 1.2 0.7
v -0.5 1.2 0.6
v -0.5 1.2 0.2
v -0.5 1.2 0.1
v -0.5 1.4 0.7
v -0.5 1.4 0.6
v -0.5 1.4 0.2
v -0.5 1.4 0.1
v -0.5 1.7 0.6
v -0.5 1.7 0.2
v -0.5 2 0.6
v -0.5 2 0.2
v -0.4 0 0.7
v -0.4 0 0.2
v -0.4 0.1 0.7
v -0.4 0.1 0.6
v -0.4 0.1 0.3
v -0.4 0.1 0.2
v -0.4 0.6 0.3
v -0.4 0.6 0.2
v -0.4 0.7 0.6
v -0.4 0.7 0.2
v -0.4 0.8 0.7
v -0.4 0.8 0.6
v -0.4 0.9 0.7
v -0.4 0.9 0.6
v -0.4 0.9 0.2
v -0.4 0.9 0.1
v -0.4 1 0.7
v -0.4 1 0.6
v -0.4 1 0.2
v -0.4 1 0.1
v -0.4 1.2 0.6
v -0.4 1.2 0.2
v -0.4 1.3 0.6
v -0.4 1.3 0.2
v -0.3 0.9 0.6
v -0.3 0.9 0.2
v -0.3 1 0.6
v -0.3 1 0.2
v -0.3 1.3 0.6
v -0.3 1.3 0.2
v -0.3 1.4 0.7
v -0.3 1.4 0.6
v -0.3 1.4 0.2
v -0.3 1.4 0.1
v -0.3 1.6 0.7
v -0.3 1.6 0.6
v -0.3 1.6 0.2
v -0.3 1.6 0.1
v -0.3 1.7 0.6
v -0.3 1.7 0.2
v -0.2 0.8 0.6
v -0.2 0.8 0.2
v -0.2 0.9 0.6
v -0.2 0.9 0.2
v -0.0999999 0.6 0.6
v -0.0999999 0.6 0.2
v -0.0999999 0.8 0.6
v -0.0999999 0.8 0.2
v -0.0999999 1.2 0.5
v -0.0999999 1.2 0.3
v -0.0999999 1.4 0.5
v -0.0999999 1.4 0.3
v -0.0999999 1.5 0.6
v -0.0999999 1.5 0.2
v -0.0999999 1.6 0.6
v -0.0999999 1.6 0.2
v 0 0.9 0.5
v 0 0.9 0.3
v 0 1.2 0.5
v 0 1.2 0.3
v 0 1.4 0.6
v 0 1.4 0.2
v 0 1.5 0.6
v 0 1.5 0.2
v -1 1.4 0.7
v -1 1.6 0.7
v -0.9 0 0.7
v -0.9 0.1 0.7
v -0.9 0.8 0.7
v -0.9 1 0.7
v -0.8 0 0.7
v -0.8 0.1 0.7
v -0.8 1.2 0.7
v -0.8 1.4 0.7
v -0.8 1.6 0.7
v -0.5 0 0.7
v -0.5 0.1 0.7
v -0.5 0.8 0.7
v -0.5 0.9 0.7
v -0.5 1.2 0.7
v -0.5 1.4 0.7
v -0.5 1.6 0.7
v -0.4 0 0.7
v -0.4 0.1 0.7
v -0.4 0.8 0.7
v -0.4 0.9 0.7
v -0.4 1 0.7
v -0.3 1.4 0.7
v -0.3 1.6 0.7
v -1.3 1.4 0.6
v -1.3 1.5 0.6
v -1.2 0.6 0.6
v -1.2 0.8 0.6
v -1.2 1.5 0.6
v -1.2 1.6 0.6
v -1.1 0.6 0.6
v -1.1 0.7 0.6
v -1.1 0.8 0.6
v -1.1 0.9 0.6
v -1 0.7 0.6
v -1 0.8 0.6
v -1 0.9 0.6
v -1 1 0.6
v -1 1.3 0.6
v -1 1.4 0.6
v -1 1.6 0.6
v -1 1.7 0.6
v -0.9 0.1 0.6
v -0.9 0.7 0.6
v -0.9 0.8 0.6
v -0.9 1 0.6
v -0.9 1.2 0.6
v -0.9 1.3 0.6
v -0.8 0.1 0.6
v -0.8 0.6 0.6
v -0.8 0.7 0.6
v -0.8 0.8 0.6
v -0.8 1.2 0.6
v -0.8 1.4 0.6
v -0.8 1.6 0.6
v -0.8 1.7 0.6
v -0.8 2 0.6
v -0.5 0.1 0.6
v -0.5 0.6 0.6
v -0.5 0.7 0.6
v -0.5 0.8 0.6
v -0.5 1.2 0.6
v -0.5 1.4 0.6
v -0.5 1.6 0.6
v -0.5 1.7 0.6
v -0.5 2 0.6
v -0.4 0.1 0.6
v -0.4 0.7 0.6
v -0.4 0.8 0.6
v -0.4 0.9 0.6
v -0.4 1 0.6
v -0.4 1.2 0.6
v -0.4 1.3 0.6
v -0.3 0.7 0.6
v -0.3 0.8 0.6
v -0.3 0.9 0.6
v -0.3 1 0.6
v -0.3 1.3 0.6
v -0.3 1.4 0.6
v -0.3 1.6 0.6
v -0.3 1.7 0.6
v -0.2 0.6 0.6
v -0.2 0.7 0.6
v -0.2 0.8 0.6
v -0.2 0.9 0.6
v -0.0999999 0.6 0.6
v -0.0999999 0.8 0.6
v -0.0999999 1.5 0.6
v -0.0999999 1.6 0.6
v 0 1.4 0.6
v 0 1.5 0.6
v -1.3 0.9 0.5
v -1.3 1.2 0.5
v -1.2 0.9 0.5
v -1.2 1.1 0.5
v -1.2 1.2 0.5
v -1.2 1.4 0.5
v -1.1 1.1 0.5
v -1.1 1.4 0.5
v -0.7 1.6 0.5
v -0.7 1.7 0.5
v -0.6 1.6 0.5
v -0.6 1.7 0.5
v -0.2 1.1 0.5
v -0.2 1.4 0.5
v -0.0999999 0.9 0.5
v -0.0999999 1.1 0.5
v -0.0999999 1.2 0.5
v -0.0999999 1.4 0.5
v 0 0.9 0.5
v 0 1.2 0.5
v -0.8 1.6 0.4
v -0.8 1.7 0.4
v -0.7 1.6 0.4
v -0.7 1.7 0.4
v -0.9 0.8 0.6
v -0.9 0.9 0.6
v -0.8 0.8 0.6
v -0.8 0.9 0.6
v -0.5 0.8 0.6
v -0.5 0.9 0.6
v -0.4 0.8 0.6
v -0.4 0.9 0.6
v -1.3 0.9 0.3
v -1.3 1.2 0.3
v -1.2 0.9 0.3
v -1.2 1.1 0.3
v -1.2 1.2 0.3
v -1.2 1.4 0.3
v -1.1 1.1 0.3
v -1.1 1.4 0.3
v -0.8 1.6 0.3
v -0.8 1.7 0.3
v -0.7 1.6 0.3
v -0.7 1.7 0.3
v -0.5 0.1 0.3
v -0.5 0.6 0.3
v -0.4 0.1 0.3
v -0.4 0.6 0.3
v -0.2 1.1 0.3
v -0.2 1.4 0.3
v -0.0999999 0.9 0.3
v -0.0999999 1.1 0.3
v -0.0999999 1.2 0.3
v -0.0999999 1.4 0.3
v 0 0.9 0.3
v 0 1.2 0.3
v -1.3 1.4 0.2
v -1.3 1.5 0.2
v -1.2 0.6 0.2
v -1.2 0.8 0.2
v -1.2 1.5 0.2
v -1.2 1.6 0.2
v -1.1 0.6 0.2
v -1.1 0.7 0.2
v -1.1 0.8 0.2
v -1.1 0.9 0.2
v -1 0.7 0.2
v -1 0.8 0.2
v -1 0.9 0.2
v -1 1 0.2
v -1 1.3 0.2
v -1 1.4 0.2
v -1 1.6 0.2
v -1 1.7 0.2
v -0.9 0.1 0.2
v -0.9 0.7 0.2
v -0.9 0.8 0.2
v -0.9 0.9 0.2
v -0.9 1 0.2
v -0.9 1.2 0.2
v -0.9 1.3 0.2
v -0.8 0.1 0.2
v -0.8 0.6 0.2
v -0.8 0.7 0.2
v -0.8 1.2 0.2
v -0.8 1.4 0.2
v -0.8 1.6 0.2
v -0.8 1.7 0.2
v -0.8 2 0.2
v -0.7 1.6 0.2
v -0.7 1.7 0.2
v -0.6 1.6 0.2
v -0.6 1.7 0.2
v -0.5 0 0.2
v -0.5 0.1 0.2
v -0.5 0.7 0.2
v -0.5 1.2 0.2
v -0.5 1.4 0.2
v -0.5 1.6 0.2
v -0.5 1.7 0.2
v -0.5 2 0.2
v -0.4 0 0.2
v -0.4 0.1 0.2
v -0.4 0.6 0.2
v -0.4 0.7 0.2
v -0.4 0.8 0.2
v -0.4 0.9 0.2
v -0.4 1 0.2
v -0.4 1.2 0.2
v -0.4 1.3 0.2
v -0.3 0.7 0.2
v -0.3 0.8 0.2
v -0.3 0.9 0.2
v -0.3 1 0.2
v -0.3 1.3 0.2
v -0.3 1.4 0.2
v -0.3 1.6 0.2
v -0.3 1.7 0.2
v -0.2 0.6 0.2
v -0.2 0.7 0.2
v -0.2 0.8 0.2
v -0.2 0.9 0.2
v -0.0999999 0.6 0.2
v -0.0999999 0.8 0.2
v -0.0999999 1.5 0.2
v -0.0999999 1.6 0.2
v 0 1.4 0.2
v 0 1.5 0.2
v -1 1.4 0.1
v -1 1.6 0.1
v -0.9 0 0.1
v -0.9 0.1 0.1
v -0.9 0.9 0.1
v -0.9 1 0.1
v -0.8 0 0.1
v -0.8 0.1 0.1
v -0.8 0.7 0.1
v -0.8 0.9 0.1
v -0.8 1.2 0.1
v -0.8 1.4 0.1
v -0.8 1.6 0.1
v -0.5 0.7 0.1
v -0.5 0.9 0.1
v -0.5 1.2 0.1
v -0.5 1.4 0.1
v -0.5 1.6 0.1
v -0.4 0.9 0.1
v -0.4 1 0.1
v -0.3 1.4 0.1
v -0.3 1.6 0.1
v -0.9 0 0.7
v -0.8 0 0.7
v -0.5 0 0.7
v -0.4 0 0.7
v -0.5 0 0.2
v -0.4 0 0.2
v -0.9 0 0.1
v -0.8 0 0.1
v -1.2 0.6 0.6
v -1.1 0.6 0.6
v -0.8 0.6 0.6
v -0.5 0.6 0.6
v -0.2 0.6 0.6
v -0.0999999 0.6 0.6
v -0.5 0.6 0.3
v -0.4 0.6 0.3
v -1.2 0.6 0.2
v -1.1 0.6 0.2
v -0.8 0.6 0.2
v -0.4 0.6 0.2
v -0.2 0.6 0.2
v -0.0999999 0.6 0.2
v -1.1 0.7 0.6
v -1 0.7 0.6
v -0.3 0.7 0.6
v -0.2 0.7 0.6
v -1.1 0.7 0.2
v -1 0.7 0.2
v -0.8 0.7 0.2
v -0.5 0.7 0.2
v -0.3 0.7 0.2
v -0.2 0.7 0.2
v -0.8 0.7 0.1
v -0.5 0.7 0.1
v -0.9 0.8 0.7
v -0.5 0.8 0.7
v -0.4 0.8 0.7
v -1 0.8 0.6
v -0.9 0.8 0.6
v -0.8 0.8 0.6
v -0.5 0.8 0.6
v -0.4 0.8 0.6
v -0.3 0.8 0.6
v -1 0.8 0.2
v -0.9 0.8 0.2
v -0.4 0.8 0.2
v -0.3 0.8 0.2
v -0.9 0.9 0.6
v -0.8 0.9 0.6
v -0.5 0.9 0.6
v -0.4 0.9 0.6
v -1.3 0.9 0.5
v -1.2 0.9 0.5
v -0.0999999 0.9 0.5
v 0 0.9 0.5
v -1.3 0.9 0.3
v -1.2 0.9 0.3
v -0.0999999 0.9 0.3
v 0 0.9 0.3
v -0.9 0.9 0.2
v -0.8 0.9 0.2
v -0.5 0.9 0.2
v -0.4 0.9 0.2
v -0.9 0.9 0.1
v -0.8 0.9 0.1
v -0.5 0.9 0.1
v -0.4 0.9 0.1
v -1.2 1.1 0.5
v -1.1 1.1 0.5
v -0.2 1.1 0.5
v -0.0999999 1.1 0.5
v -1.2 1.1 0.3
v -1.1 1.1 0.3
v -0.2 1.1 0.3
v -0.0999999 1.1 0.3
v -0.8 1.2 0.7
v -0.5 1.2 0.7
v -0.8 1.2 0.6
v -0.5 1.2 0.6
v -0.8 1.2 0.2
v -0.5 1.2 0.2
v -0.8 1.2 0.1
v -0.5 1.2 0.1
v -1 1.3 0.6
v -0.9 1.3 0.6
v -0.4 1.3 0.6
v -0.3 1.3 0.6
v -1 1.3 0.2
v -0.9 1.3 0.2
v -0.4 1.3 0.2
v -0.3 1.3 0.2
v -1 1.4 0.7
v -0.8 1.4 0.7
v -0.5 1.4 0.7
v -0.3 1.4 0.7
v -1.3 1.4 0.6
v -1 1.4 0.6
v -0.8 1.4 0.6
v -0.5 1.4 0.6
v -0.3 1.4 0.6
v 0 1.4 0.6
v -1.2 1.4 0.5
v -1.1 1.4 0.5
v -0.2 1.4 0.5
v -0.0999999 1.4 0.5
v -1.2 1.4 0.3
v -1.1 1.4 0.3
v -0.2 1.4 0.3
v -0.0999999 1.4 0.3
v -1.3 1.4 0.2
v -1 1.4 0.2
v -0.8 1.4 0.2
v -0.5 1.4 0.2
v -0.3 1.4 0.2
v 0 1.4 0.2
v -1 1.4 0.1
v -0.8 1.4 0.1
v -0.5 1.4 0.1
v -0.3 1.4 0.1
v -0.8 1.7 0.6
v -0.5 1.7 0.6
v -0.7 1.7 0.5
v -0.6 1.7 0.5
v -0.8 1.7 0.4
v -0.7 1.7 0.4
v -0.8 1.7 0.3
v -0.7 1.7 0.3
v -0.8 1.7 0.2
v -0.7 1.7 0.2
v -0.6 1.7 0.2
v -0.5 1.7 0.2
v -0.9 0.1 0.7
v -0.8 0.1 0.7
v -0.5 0.1 0.7
v -0.4 0.1 0.7
v -0.9 0.1 0.6
v -0.8 0.1 0.6
v -0.5 0.1 0.6
v -0.4 0.1 0.6
v -0.5 0.1 0.3
v -0.4 0.1 0.3
v -0.9 0.1 0.2
v -0.8 0.1 0.2
v -0.5 0.1 0.2
v -0.4 0.1 0.2
v -0.9 0.1 0.1
v -0.8 0.1 0.1
v -0.9 0.7 0.6
v -0.8 0.7 0.6
v -0.5 0.7 0.6
v -0.4 0.7 0.6
v -0.9 0.7 0.2
v -0.8 0.7 0.2
v -0.5 0.7 0.2
v -0.4 0.7 0.2
v -1.2 0.8 0.6
v -1.1 0.8 0.6
v -0.2 0.8 0.6
v -0.0999999 0.8 0.6
v -1.2 0.8 0.2
v -1.1 0.8 0.2
v -0.2 0.8 0.2
v -0.0999999 0.8 0.2
v -1.1 0.9 0.6
v -1 0.9 0.6
v -0.3 0.9 0.6
v -0.2 0.9 0.6
v -1.1 0.9 0.2
v -1 0.9 0.2
v -0.3 0.9 0.2
v -0.2 0.9 0.2
v -0.9 1 0.7
v -0.4 1 0.7
v -1 1 0.6
v -0.9 1 0.6
v -0.4 1 0.6
v -0.3 1 0.6
v -1 1 0.2
v -0.9 1 0.2
v -0.4 1 0.2
v -0.3 1 0.2
v -0.9 1 0.1
v -0.4 1 0.1
v -1.3 1.2 0.5
v -1.2 1.2 0.5
v -0.0999999 1.2 0.5
v 0 1.2 0.5
v -1.3 1.2 0.3
v -1.2 1.2 0.3
v -0.0999999 1.2 0.3
v 0 1.2 0.3
v -0.8 1.4 0.7
v -0.5 1.4 0.7
v -0.8 1.4 0.6
v -0.5 1.4 0.6
v -0.8 1.4 0.2
v -0.5 1.4 0.2
v -0.8 1.4 0.1
v -0.5 1.4 0.1
v -1.3 1.5 0.6
v -1.2 1.5 0.6
v -0.0999999 1.5 0.6
v 0 1.5 0.6
v -1.3 1.5 0.2
v -1.2 1.5 0.2
v -0.0999999 1.5 0.2
v 0 1.5 0.2
v -1 1.6 0.7
v -0.8 1.6 0.7
v -0.5 1.6 0.7
v -0.3 1.6 0.7
v -1.2 1.6 0.6
v -1 1.6 0.6
v -0.8 1.6 0.6
v -0.5 1.6 0.6
v -0.3 1.6 0.6
v -0.0999999 1.6 0.6
v -0.7 1.6 0.5
v -0.6 1.6 0.5
v -0.8 1.6 0.4
v -0.7 1.6 0.4
v -0.8 1.6 0.3
v -0.7 1.6 0.3
v -1.2 1.6 0.2
v -1 1.6 0.2
v -0.8 1.6 0.2
v -0.7 1.6 0.2
v -0.6 1.6 0.2
v -0.5 1.6 0.2
v -0.3 1.6 0.2
v -0.0999999 1.6 0.2
v -1 1.6 0.1
v -0.8 1.6 0.1
v -0.5 1.6 0.1
v -0.3 1.6 0.1
v -1 1.7 0.6
v -0.8 1.7 0.6
v -0.5 1.7 0.6
v -0.3 1.7 0.6
v -1 1.7 0.2
v -0.8 1.7 0.2
v -0.5 1.7 0.2
v -0.3 1.7 0.2
v -0.8 2 0.6
v -0.5 2 0.6
v -0.8 2 0.2
v -0.5 2 0.2

# faces
f 3/7/1 2/7/1 1/7/1
f 4/7/1 2/7/1 3/7/1
f 7/4/1 6/4/1 5/4/1
f 8/4/1 6/4/1 7/4/1
f 11/1/1 10/1/1 9/1/1
f 12/1/1 10/1/1 11/1/1
f 15/7/1 14/7/1 13/7/1
f 16/7/1 14/7/1 15/7/1
f 19/4/1 18/4/1 17/4/1
f 20/4/1 18/4/1 19/4/1
f 23/1/1 22/1/1 21/1/1
f 24/1/1 22/1/1 23/1/1
f 27/1/1 26/1/1 25/1/1
f 28/1/1 26/1/1 27/1/1
f 32/4/1 30/4/1 29/4/1
f 33/4/1 30/4/1 32/4/1
f 35/4/1 32/4/1 31/4/1
f 36/4/1 32/4/1 35/4/1
f 37/4/1 34/4/1 33/4/1
f 38/4/1 34/4/1 37/4/1
f 39/4/1 37/4/1 36/4/1
f 40/4/1 37/4/1 39/4/1
f 43/9/1 42/9/1 41/9/1
f 44/9/1 42/9/1 43/9/1
f 45/9/1 42/9/1 44/9/1
f 46/9/1 42/9/1 45/9/1
f 47/10/1 45/10/1 44/10/1
f 48/10/1 45/10/1 47/10/1
f 53/1/1 50/1/1 49/1/1
f 54/1/1 50/1/1 53/1/1
f 55/1/1 52/1/1 51/1/1
f 56/1/1 52/1/1 55/1/1
f 57/3/1 55/3/1 54/3/1
f 58/3/1 55/3/1 57/3/1
f 59/4/1 58/4/1 57/4/1
f 60/4/1 58/4/1 59/4/1
f 64/3/1 62/3/1 61/3/1
f 65/3/1 62/3/1 64/3/1
f 66/1/1 63/1/1 62/1/1
f 66/3/1 62/3/1 65/3/1
f 67/1/1 63/1/1 66/1/1
f 72/4/1 69/4/1 68/4/1
f 73/4/1 69/4/1 72/4/1
f 74/4/1 71/4/1 70/4/1
f 75/4/1 71/4/1 74/4/1
f 78/2/1 77/2/1 76/2/1
f 79/2/1 77/2/1 78/2/1
f 84/6/1 81/6/1 80/6/1
f 85/6/1 81/6/1 84/6/1
f 86/6/1 83/6/1 82/6/1
f 87/6/1 83/6/1 86/6/1
f 90/9/1 89/9/1 88/9/1
f 91/9/1 89/9/1 90/9/1
f 92/9/1 89/9/1 91/9/1
f 93/9/1 89/9/1 92/9/1
f 94/10/1 92/10/1 91/10/1
f 95/10/1 92/10/1 94/10/1
f 100/4/1 97/4/1 96/4/1
f 101/4/1 97/4/1 100/4/1
f 102/4/1 99/4/1 98/4/1
f 103/4/1 99/4/1 102/4/1
f 104/4/1 102/4/1 101/4/1
f 105/4/1 102/4/1 104/4/1
f 108/1/1 107/1/1 106/1/1
f 109/1/1 107/1/1 108/1/1
f 112/1/1 111/1/1 110/1/1
f 113/1/1 111/1/1 112/1/1
f 116/1/1 115/1/1 114/1/1
f 117/1/1 115/1/1 116/1/1
f 120/7/1 119/7/1 118/7/1
f 121/7/1 119/7/1 120/7/1
f 124/7/1 123/7/1 122/7/1
f 125/7/1 123/7/1 124/7/1
f 126/7/2 127/7/2 128/7/2
f 128/7/2 127/7/2 129/7/2
f 130/1/2 131/1/2 132/1/2
f 132/1/2 131/1/2 133/1/2
f 134/7/2 135/7/2 136/7/2
f 136/7/2 135/7/2 137/7/2
f 138/1/2 139/1/2 140/1/2
f 140/1/2 139/1/2 141/1/2
f 142/1/2 143/1/2 144/1/2
f 144/1/2 143/1/2 145/1/2
f 146/9/2 147/9/2 148/9/2
f 148/9/2 147/9/2 149/9/2
f 149/9/2 147/9/2 150/9/2
f 150/9/2 147/9/2 151/9/2
f 149/10/2 150/10/2 152/10/2
f 152/10/2 150/10/2 153/10/2
f 154/4/2 155/4/2 158/4/2
f 158/4/2 155/4/2 159/4/2
f 156/4/2 157/4/2 162/4/2
f 162/4/2 157/4/2 163/4/2
f 159/4/2 160/4/2 164/4/2
f 164/4/2 160/4/2 165/4/2
f 161/4/2 162/4/2 166/4/2
f 166/4/2 162/4/2 167/4/2
f 168/6/2 169/6/2 170/6/2
f 170/6/2 169/6/2 171/6/2
f 172/3/2 173/3/2 175/3/2
f 175/3/2 173/3/2 176/3/2
f 173/1/2 174/1/2 177/1/2
f 176/3/2 173/3/2 177/3/2
f 177/1/2 174/1/2 178/1/2
f 179/4/2 180/4/2 183/4/2
f 183/4/2 180/4/2 184/4/2
f 181/4/2 182/4/2 185/4/2
f 185/4/2 182/4/2 186/4/2
f 187/2/2 188/2/2 189/2/2
f 189/2/2 188/2/2 190/2/2
f 191/9/2 192/9/2 193/9/2
f 193/9/2 192/9/2 194/9/2
f 194/9/2 192/9/2 195/9/2
f 195/9/2 192/9/2 196/9/2
f 194/10/2 195/10/2 197/10/2
f 194/10/2 197/10/2 199/10/2
f 197/10/2 198/10/2 199/10/2
f 199/10/2 198/10/2 200/10/2
f 201/5/2 202/5/2 203/5/2
f 203/5/2 202/5/2 204/5/2
f 203/1/2 204/1/2 207/1/2
f 207/1/2 204/1/2 208/1/2
f 205/1/2 206/1/2 209/1/2
f 209/1/2 206/1/2 210/1/2
f 208/3/2 209/3/2 211/3/2
f 211/3/2 209/3/2 212/3/2
f 211/4/2 212/4/2 213/4/2
f 213/4/2 212/4/2 214/4/2
f 215/1/2 216/1/2 217/1/2
f 217/1/2 216/1/2 218/1/2
f 219/4/2 220/4/2 222/4/2
f 222/4/2 220/4/2 223/4/2
f 221/4/2 222/4/2 225/4/2
f 225/4/2 222/4/2 226/4/2
f 223/4/2 224/4/2 227/4/2
f 227/4/2 224/4/2 228/4/2
f 226/4/2 227/4/2 229/4/2
f 229/4/2 227/4/2 230/4/2
f 231/1/2 232/1/2 233/1/2
f 233/1/2 232/1/2 234/1/2
f 235/1/2 236/1/2 237/1/2
f 237/1/2 236/1/2 238/1/2
f 239/7/2 240/7/2 241/7/2
f 241/7/2 240/7/2 242/7/2
f 243/4/2 244/4/2 245/4/2
f 245/4/2 244/4/2 246/4/2
f 247/7/2 248/7/2 249/7/2
f 249/7/2 248/7/2 250/7/2
f 251/4/2 252/4/2 253/4/2
f 253/4/2 252/4/2 254/4/2
f 261/9/3 258/9/3 257/9/3
f 262/9/3 258/9/3 261/9/3
f 264/4/3 256/4/3 255/4/3
f 265/4/3 256/4/3 264/4/3
f 268/1/3 260/1/3 259/1/3
f 269/1/3 260/1/3 268/1/3
f 270/4/3 264/4/3 263/4/3
f 271/4/3 264/4/3 270/4/3
f 273/9/3 267/9/3 266/9/3
f 274/9/3 267/9/3 273/9/3
f 275/5/3 269/5/3 268/5/3
f 276/1/3 260/1/3 269/1/3
f 276/5/3 269/5/3 275/5/3
f 277/1/3 260/1/3 276/1/3
f 278/4/3 272/4/3 271/4/3
f 279/4/3 272/4/3 278/4/3
f 284/4/3 281/4/3 280/4/3
f 286/1/3 283/1/3 282/1/3
f 287/1/3 283/1/3 286/1/3
f 288/1/3 283/1/3 287/1/3
f 290/1/3 289/1/3 288/1/3
f 290/1/3 288/1/3 287/1/3
f 291/1/3 289/1/3 290/1/3
f 292/1/3 289/1/3 291/1/3
f 295/4/3 285/4/3 284/4/3
f 295/4/3 284/4/3 280/4/3
f 296/4/3 285/4/3 295/4/3
f 300/1/3 293/1/3 292/1/3
f 300/1/3 292/1/3 291/1/3
f 301/1/3 293/1/3 300/1/3
f 303/4/3 295/4/3 294/4/3
f 304/10/3 299/10/3 298/10/3
f 305/10/3 299/10/3 304/10/3
f 306/10/3 299/10/3 305/10/3
f 308/4/3 303/4/3 302/4/3
f 308/3/3 302/3/3 301/3/3
f 309/4/3 295/4/3 303/4/3
f 309/4/3 303/4/3 308/4/3
f 310/4/3 297/4/3 296/4/3
f 311/4/3 297/4/3 310/4/3
f 314/10/3 306/10/3 305/10/3
f 315/3/3 307/3/3 306/3/3
f 315/10/3 306/10/3 314/10/3
f 316/3/3 307/3/3 315/3/3
f 317/3/3 308/3/3 301/3/3
f 318/8/3 310/8/3 309/8/3
f 319/8/3 310/8/3 318/8/3
f 320/2/3 312/2/3 311/2/3
f 321/2/3 312/2/3 320/2/3
f 322/10/3 314/10/3 313/10/3
f 322/10/3 315/10/3 314/10/3
f 323/10/3 315/10/3 322/10/3
f 326/3/3 317/3/3 301/3/3
f 327/4/3 318/4/3 317/4/3
f 327/3/3 317/3/3 326/3/3
f 328/4/3 318/4/3 327/4/3
f 330/1/3 325/1/3 324/1/3
f 330/1/3 326/1/3 325/1/3
f 331/1/3 326/1/3 330/1/3
f 332/1/3 326/1/3 331/1/3
f 333/4/3 318/4/3 328/4/3
f 334/4/3 318/4/3 333/4/3
f 335/4/3 320/4/3 319/4/3
f 336/4/3 320/4/3 335/4/3
f 338/1/3 330/1/3 329/1/3
f 338/1/3 331/1/3 330/1/3
f 339/1/3 331/1/3 338/1/3
f 340/1/3 331/1/3 339/1/3
f 341/1/3 338/1/3 337/1/3
f 341/1/3 339/1/3 338/1/3
f 342/1/3 339/1/3 341/1/3
f 343/4/3 335/4/3 334/4/3
f 344/4/3 335/4/3 343/4/3
f 345/4/3 343/4/3 334/4/3
f 346/4/3 343/4/3 345/4/3
f 349/7/3 348/7/3 347/7/3
f 350/7/3 348/7/3 349/7/3
f 351/7/3 348/7/3 350/7/3
f 353/7/3 352/7/3 351/7/3
f 353/7/3 351/7/3 350/7/3
f 354/7/3 352/7/3 353/7/3
f 357/6/3 356/6/3 355/6/3
f 358/6/3 356/6/3 357/6/3
f 362/7/3 360/7/3 359/7/3
f 363/7/3 360/7/3 362/7/3
f 364/7/3 360/7/3 363/7/3
f 365/7/3 362/7/3 361/7/3
f 365/7/3 363/7/3 362/7/3
f 366/7/3 363/7/3 365/7/3
f 369/2/3 368/2/3 367/2/3
f 370/2/3 368/2/3 369/2/3
f 371/1/4 372/1/4 373/1/4
f 373/1/4 372/1/4 374/1/4
f 375/5/4 376/5/4 377/5/4
f 377/5/4 376/5/4 378/5/4
f 379/7/4 380/7/4 381/7/4
f 381/7/4 380/7/4 382/7/4
f 382/7/4 380/7/4 383/7/4
f 383/7/4 384/7/4 385/7/4
f 382/7/4 383/7/4 385/7/4
f 385/7/4 384/7/4 386/7/4
f 387/2/4 388/2/4 389/2/4
f 389/2/4 388/2/4 390/2/4
f 391/10/4 392/10/4 393/10/4
f 393/10/4 392/10/4 394/10/4
f 395/7/4 396/7/4 398/7/4
f 398/7/4 396/7/4 399/7/4
f 399/7/4 396/7/4 400/7/4
f 397/7/4 398/7/4 401/7/4
f 398/7/4 399/7/4 401/7/4
f 401/7/4 399/7/4 402/7/4
f 403/4/4 404/4/4 407/4/4
f 405/1/4 406/1/4 409/1/4
f 409/1/4 406/1/4 410/1/4
f 410/1/4 406/1/4 411/1/4
f 411/1/4 412/1/4 413/1/4
f 410/1/4 411/1/4 413/1/4
f 413/1/4 412/1/4 414/1/4
f 414/1/4 412/1/4 415/1/4
f 407/4/4 408/4/4 418/4/4
f 403/4/4 407/4/4 418/4/4
f 418/4/4 408/4/4 419/4/4
f 415/1/4 416/1/4 423/1/4
f 414/1/4 415/1/4 423/1/4
f 423/1/4 416/1/4 424/1/4
f 424/1/4 416/1/4 425/1/4
f 417/4/4 418/4/4 427/4/4
f 421/10/4 422/10/4 428/10/4
f 428/10/4 422/10/4 429/10/4
f 429/10/4 422/10/4 430/10/4
f 426/4/4 427/4/4 431/4/4
f 425/3/4 426/3/4 431/3/4
f 427/4/4 418/4/4 432/4/4
f 431/4/4 427/4/4 432/4/4
f 419/4/4 420/4/4 433/4/4
f 433/4/4 420/4/4 434/4/4
f 432/8/4 433/8/4 436/8/4
f 434/2/4 435/2/4 437/2/4
f 432/8/4 436/8/4 438/8/4
f 436/6/4 437/6/4 438/6/4
f 437/2/4 435/2/4 439/2/4
f 438/6/4 437/6/4 439/6/4
f 429/10/4 430/10/4 442/10/4
f 425/3/4 431/3/4 443/3/4
f 432/8/4 438/8/4 444/8/4
f 444/8/4 438/8/4 445/8/4
f 439/2/4 435/2/4 446/2/4
f 446/2/4 435/2/4 447/2/4
f 440/9/4 441/9/4 448/9/4
f 448/9/4 441/9/4 449/9/4
f 429/10/4 442/10/4 450/10/4
f 450/10/4 442/10/4 451/10/4
f 425/3/4 443/3/4 454/3/4
f 443/4/4 444/4/4 455/4/4
f 454/3/4 443/3/4 455/3/4
f 455/4/4 444/4/4 456/4/4
f 452/1/4 453/1/4 458/1/4
f 453/1/4 454/1/4 458/1/4
f 458/1/4 454/1/4 459/1/4
f 459/1/4 454/1/4 460/1/4
f 456/4/4 444/4/4 461/4/4
f 461/4/4 444/4/4 462/4/4
f 445/4/4 446/4/4 463/4/4
f 463/4/4 446/4/4 464/4/4
f 457/1/4 458/1/4 466/1/4
f 458/1/4 459/1/4 466/1/4
f 466/1/4 459/1/4 467/1/4
f 467/1/4 459/1/4 468/1/4
f 465/1/4 466/1/4 469/1/4
f 466/1/4 467/1/4 469/1/4
f 469/1/4 467/1/4 470/1/4
f 462/4/4 463/4/4 471/4/4
f 471/4/4 463/4/4 472/4/4
f 462/4/4 471/4/4 473/4/4
f 473/4/4 471/4/4 474/4/4
f 477/9/4 478/9/4 481/9/4
f 481/9/4 478/9/4 482/9/4
f 479/1/4 480/1/4 484/1/4
f 475/4/4 476/4/4 486/4/4
f 486/4/4 476/4/4 487/4/4
f 483/1/4 484/1/4 488/1/4
f 484/1/4 480/1/4 489/1/4
f 488/1/4 484/1/4 489/1/4
f 485/4/4 486/4/4 490/4/4
f 490/4/4 486/4/4 491/4/4
f 489/1/4 480/1/4 493/1/4
f 493/1/4 480/1/4 494/1/4
f 491/4/4 492/4/4 495/4/4
f 495/4/4 492/4/4 496/4/4
f 501/9/5 500/9/5 499/9/5
f 502/9/5 500/9/5 501/9/5
f 503/9/5 498/9/5 497/9/5
f 504/9/5 498/9/5 503/9/5
f 511/10/5 508/10/5 507/10/5
f 513/1/5 506/1/5 505/1/5
f 514/1/5 506/1/5 513/1/5
f 515/10/5 512/10/5 511/10/5
f 515/10/5 511/10/5 507/10/5
f 516/10/5 512/10/5 515/10/5
f 517/1/5 510/1/5 509/1/5
f 518/1/5 510/1/5 517/1/5
f 523/1/5 520/1/5 519/1/5
f 524/1/5 520/1/5 523/1/5
f 527/1/5 522/1/5 521/1/5
f 528/1/5 522/1/5 527/1/5
f 529/1/5 526/1/5 525/1/5
f 530/1/5 526/1/5 529/1/5
f 535/1/5 532/1/5 531/1/5
f 536/1/5 532/1/5 535/1/5
f 537/5/5 533/5/5 532/5/5
f 537/1/5 532/1/5 536/1/5
f 538/5/5 533/5/5 537/5/5
f 540/1/5 535/1/5 534/1/5
f 541/1/5 535/1/5 540/1/5
f 542/1/5 539/1/5 538/1/5
f 543/1/5 539/1/5 542/1/5
f 552/7/5 549/7/5 548/7/5
f 553/7/5 549/7/5 552/7/5
f 554/7/5 551/7/5 550/7/5
f 555/7/5 551/7/5 554/7/5
f 556/3/5 545/3/5 544/3/5
f 557/3/5 545/3/5 556/3/5
f 558/3/5 547/3/5 546/3/5
f 559/3/5 547/3/5 558/3/5
f 560/1/5 557/1/5 556/1/5
f 561/1/5 557/1/5 560/1/5
f 562/1/5 559/1/5 558/1/5
f 563/1/5 559/1/5 562/1/5
f 568/7/5 565/7/5 564/7/5
f 569/7/5 565/7/5 568/7/5
f 570/7/5 567/7/5 566/7/5
f 571/7/5 567/7/5 570/7/5
f 574/4/5 573/4/5 572/4/5
f 575/4/5 573/4/5 574/4/5
f 578/4/5 577/4/5 576/4/5
f 579/4/5 577/4/5 578/4/5
f 584/4/5 581/4/5 580/4/5
f 585/4/5 581/4/5 584/4/5
f 586/4/5 583/4/5 582/4/5
f 587/4/5 583/4/5 586/4/5
f 593/4/5 589/4/5 588/4/5
f 594/4/5 589/4/5 593/4/5
f 595/4/5 591/4/5 590/4/5
f 596/4/5 591/4/5 595/4/5
f 598/4/5 593/4/5 592/4/5
f 599/4/5 593/4/5 598/4/5
f 600/4/5 597/4/5 596/4/5
f 601/4/5 597/4/5 600/4/5
f 602/4/5 598/4/5 592/4/5
f 603/4/5 593/4/5 599/4/5
f 604/4/5 600/4/5 596/4/5
f 605/4/5 597/4/5 601/4/5
f 606/4/5 602/4/5 592/4/5
f 606/4/5 603/4/5 602/4/5
f 607/4/5 593/4/5 603/4/5
f 607/4/5 603/4/5 606/4/5
f 610/4/5 605/4/5 604/4/5
f 610/4/5 604/4/5 596/4/5
f 611/4/5 597/4/5 605/4/5
f 611/4/5 605/4/5 610/4/5
f 612/4/5 608/4/5 607/4/5
f 613/4/5 608/4/5 612/4/5
f 614/4/5 610/4/5 609/4/5
f 615/4/5 610/4/5 614/4/5
f 618/2/5 617/2/5 616/2/5
f 619/2/5 617/2/5 618/2/5
f 620/2/5 618/2/5 616/2/5
f 621/2/5 618/2/5 620/2/5
f 624/2/5 623/2/5 622/2/5
f 625/2/5 623/2/5 624/2/5
f 626/2/5 617/2/5 619/2/5
f 627/2/5 617/2/5 626/2/5
f 628/9/6 629/9/6 632/9/6
f 632/9/6 629/9/6 633/9/6
f 630/9/6 631/9/6 634/9/6
f 634/9/6 631/9/6 635/9/6
f 636/9/6 637/9/6 640/9/6
f 640/9/6 637/9/6 641/9/6
f 638/9/6 639/9/6 642/9/6
f 642/9/6 639/9/6 643/9/6
f 644/10/6 645/10/6 648/10/6
f 648/10/6 645/10/6 649/10/6
f 646/10/6 647/10/6 650/10/6
f 650/10/6 647/10/6 651/10/6
f 652/1/6 653/1/6 656/1/6
f 656/1/6 653/1/6 657/1/6
f 654/1/6 655/1/6 658/1/6
f 658/1/6 655/1/6 659/1/6
f 660/1/6 661/1/6 664/1/6
f 664/1/6 661/1/6 665/1/6
f 662/1/6 663/1/6 666/1/6
f 666/1/6 663/1/6 667/1/6
f 668/1/6 669/1/6 671/1/6
f 671/1/6 669/1/6 672/1/6
f 670/1/6 671/1/6 674/1/6
f 674/1/6 671/1/6 675/1/6
f 672/1/6 673/1/6 676/1/6
f 676/1/6 673/1/6 677/1/6
f 675/1/6 676/1/6 678/1/6
f 678/1/6 676/1/6 679/1/6
f 680/7/6 681/7/6 684/7/6
f 684/7/6 681/7/6 685/7/6
f 682/7/6 683/7/6 686/7/6
f 686/7/6 683/7/6 687/7/6
f 688/4/6 689/4/6 690/4/6
f 690/4/6 689/4/6 691/4/6
f 692/4/6 693/4/6 694/4/6
f 694/4/6 693/4/6 695/4/6
f 696/4/6 697/4/6 700/4/6
f 700/4/6 697/4/6 701/4/6
f 698/4/6 699/4/6 702/4/6
f 702/4/6 699/4/6 703/4/6
f 704/4/6 705/4/6 709/4/6
f 709/4/6 705/4/6 710/4/6
f 706/4/6 707/4/6 711/4/6
f 711/4/6 707/4/6 712/4/6
f 710/8/6 711/8/6 714/8/6
f 714/8/6 711/8/6 715/8/6
f 710/8/6 714/8/6 716/8/6
f 716/8/6 714/8/6 717/8/6
f 708/4/6 709/4/6 720/4/6
f 720/4/6 709/4/6 721/4/6
f 718/8/6 719/8/6 722/8/6
f 722/8/6 719/8/6 723/8/6
f 715/8/6 711/8/6 724/8/6
f 724/8/6 711/8/6 725/8/6
f 712/4/6 713/4/6 726/4/6
f 726/4/6 713/4/6 727/4/6
f 721/4/6 722/4/6 728/4/6
f 728/4/6 722/4/6 729/4/6
f 725/4/6 726/4/6 730/4/6
f 730/4/6 726/4/6 731/4/6
f 732/4/6 733/4/6 736/4/6
f 736/4/6 733/4/6 737/4/6
f 734/4/6 735/4/6 738/4/6
f 738/4/6 735/4/6 739/4/6
f 740/2/6 741/2/6 742/2/6
f 742/2/6 741/2/6 743/2/6
