# MagicaVoxel @ Ephtracy

# group
o 

# material
mtllib door.mtl
usemtl palette

# normals
vn -1 0 0
vn 1 0 0
vn 0 0 1
vn 0 0 -1
vn 0 -1 0
vn 0 1 0

# texcoords
vt 0.517578 0.5
vt 0.826172 0.5
vt 0.931641 0.5
vt 0.986328 0.5
vt 0.994141 0.5

# verts
v -1.1 0 0.8
v -1.1 0 -0.1
v -1.1 0.1 0.8
v -1.1 0.1 0.6
v -1.1 0.1 0.1
v -1.1 0.1 -0.1
v -1.1 0.6 0.6
v -1.1 0.6 0.1
v -1.1 1.5 0.6
v -1.1 1.5 0.1
v -0.7 1.5 0.6
v -0.7 1.5 0.1
v -0.7 1.6 0.6
v -0.7 1.6 0.1
v -0.6 1.6 0.6
v -0.6 1.6 0.1
v -0.6 1.7 0.6
v -0.6 1.7 0.1
v -0.5 1.7 0.6
v -0.5 1.7 0.1
v -0.5 1.8 0.6
v -0.5 1.8 0.1
v -0.4 1.7 0.7
v -0.4 1.7 0.6
v -0.4 1.8 0.6
v -0.4 1.8 0.1
v -0.4 1.9 0.7
v -0.4 1.9 0.1
v -0.3 0.5 0.5
v -0.3 0.5 0.4
v -0.3 0.8 0.5
v -0.3 0.8 0.4
v -0.3 1.6 0.7
v -0.3 1.6 0.1
v -0.3 1.7 0.7
v -0.3 1.7 0.1
v -0.2 1.5 0.7
v -0.2 1.5 0.1
v -0.2 1.6 0.7
v -0.2 1.6 0.1
v -0.1 1.4 0.7
v -0.1 1.4 0.6
v -0.1 1.5 0.7
v -0.1 1.5 0.6
v 0 0 0.8
v 0 0 0.5
v 0 0 0.3
v 0 0 -5.96046e-08
v 0 0.1 0.8
v 0 0.1 0.7
v 0 0.1 0.5
v 0 0.1 0.3
v 0 0.1 0.1
v 0 0.1 -5.96046e-08
v 0 0.6 0.7
v 0 0.6 0.5
v 0 0.6 0.3
v 0 0.6 0.1
v 0 1.2 0.5
v 0 1.2 0.3
v 0 1.4 0.7
v 0 1.4 0.6
v 0 1.5 0.6
v 0 1.5 0.1
v -0.7 0 0.8
v -0.7 0 0.5
v -0.7 0 0.3
v -0.7 0 -0.1
v -0.7 0.1 0.8
v -0.7 0.1 0.6
v -0.7 0.1 0.5
v -0.7 0.1 0.3
v -0.7 0.1 0.1
v -0.7 0.1 -0.1
v -0.7 0.6 0.6
v -0.7 0.6 0.5
v -0.7 0.6 0.3
v -0.7 0.6 0.1
v -0.7 1.2 0.5
v -0.7 1.2 0.3
v -0.7 1.4 0.6
v -0.7 1.4 0.1
v -0.6 1.4 0.6
v -0.6 1.4 0.1
v -0.6 1.5 0.6
v -0.6 1.5 0.1
v -0.5 1.5 0.6
v -0.5 1.5 0.1
v -0.5 1.6 0.6
v -0.5 1.6 0.5
v -0.5 1.7 0.5
v -0.5 1.7 0.1
v -0.4 0.5 0.5
v -0.4 0.5 0.4
v -0.4 0.8 0.5
v -0.4 0.8 0.4
v -0.4 1.6 0.6
v -0.4 1.6 0.5
v -0.4 1.7 0.6
v -0.4 1.7 0.5
v -0.3 1.8 0.7
v -0.3 1.8 0.1
v -0.3 1.9 0.7
v -0.3 1.9 0.1
v -0.2 1.7 0.7
v -0.2 1.7 0.1
v -0.2 1.8 0.7
v -0.2 1.8 0.1
v -0.1 1.6 0.7
v -0.1 1.6 0.1
v -0.1 1.7 0.7
v -0.1 1.7 0.1
v 0 1.5 0.7
v 0 1.5 0.1
v 0 1.6 0.7
v 0 1.6 0.1
v 0.3 0 0.8
v 0.3 0 -5.96046e-08
v 0.3 0.1 0.8
v 0.3 0.1 0.7
v 0.3 0.1 0.1
v 0.3 0.1 -5.96046e-08
v 0.3 0.6 0.7
v 0.3 0.6 0.1
v 0.3 1.5 0.7
v 0.3 1.5 0.1
v -1.1 0 0.8
v -1.1 0.1 0.8
v -0.7 0 0.8
v -0.7 0.1 0.8
v 0 0 0.8
v 0 0.1 0.8
v 0.3 0 0.8
v 0.3 0.1 0.8
v -0.4 1.7 0.7
v -0.4 1.9 0.7
v -0.3 1.6 0.7
v -0.3 1.7 0.7
v -0.3 1.8 0.7
v -0.3 1.9 0.7
v -0.2 1.5 0.7
v -0.2 1.6 0.7
v -0.2 1.7 0.7
v -0.2 1.8 0.7
v -0.1 1.4 0.7
v -0.1 1.5 0.7
v -0.1 1.6 0.7
v -0.1 1.7 0.7
v 0 0.1 0.7
v 0 0.6 0.7
v 0 1.4 0.7
v 0 1.5 0.7
v 0 1.6 0.7
v 0.3 0.1 0.7
v 0.3 0.6 0.7
v 0.3 1.5 0.7
v -1.1 0.1 0.6
v -1.1 0.6 0.6
v -1.1 1.5 0.6
v -0.7 0.1 0.6
v -0.7 0.6 0.6
v -0.7 1.4 0.6
v -0.7 1.5 0.6
v -0.7 1.6 0.6
v -0.6 1.4 0.6
v -0.6 1.5 0.6
v -0.6 1.6 0.6
v -0.6 1.7 0.6
v -0.5 1.5 0.6
v -0.5 1.6 0.6
v -0.5 1.7 0.6
v -0.5 1.8 0.6
v -0.4 1.6 0.6
v -0.4 1.7 0.6
v -0.4 1.8 0.6
v -0.7 0 0.5
v -0.7 0.1 0.5
v -0.7 0.6 0.5
v -0.7 1.2 0.5
v -0.6 0.5 0.5
v -0.6 0.8 0.5
v -0.5 0.4 0.5
v -0.5 0.5 0.5
v -0.5 0.8 0.5
v -0.5 0.9 0.5
v -0.4 0.3 0.5
v -0.4 0.4 0.5
v -0.4 0.5 0.5
v -0.4 0.8 0.5
v -0.4 0.9 0.5
v -0.4 1 0.5
v -0.3 0.3 0.5
v -0.3 0.4 0.5
v -0.3 0.5 0.5
v -0.3 0.8 0.5
v -0.3 0.9 0.5
v -0.3 1 0.5
v -0.2 0.4 0.5
v -0.2 0.5 0.5
v -0.2 0.8 0.5
v -0.2 0.9 0.5
v -0.1 0.5 0.5
v -0.1 0.8 0.5
v 0 0 0.5
v 0 0.1 0.5
v 0 0.6 0.5
v 0 1.2 0.5
v -0.4 0.5 0.4
v -0.4 0.8 0.4
v -0.3 0.5 0.4
v -0.3 0.8 0.4
v -0.1 1.4 0.6
v -0.1 1.5 0.6
v 0 1.4 0.6
v 0 1.5 0.6
v -0.5 1.6 0.5
v -0.5 1.7 0.5
v -0.4 1.6 0.5
v -0.4 1.7 0.5
v -0.7 0 0.3
v -0.7 0.1 0.3
v -0.7 0.6 0.3
v -0.7 1.2 0.3
v 0 0 0.3
v 0 0.1 0.3
v 0 0.6 0.3
v 0 1.2 0.3
v -1.1 0.1 0.1
v -1.1 0.6 0.1
v -1.1 1.5 0.1
v -0.7 0.1 0.1
v -0.7 0.6 0.1
v -0.7 1.4 0.1
v -0.7 1.5 0.1
v -0.7 1.6 0.1
v -0.6 1.4 0.1
v -0.6 1.5 0.1
v -0.6 1.6 0.1
v -0.6 1.7 0.1
v -0.5 1.5 0.1
v -0.5 1.7 0.1
v -0.5 1.8 0.1
v -0.4 1.8 0.1
v -0.4 1.9 0.1
v -0.3 1.6 0.1
v -0.3 1.7 0.1
v -0.3 1.8 0.1
v -0.3 1.9 0.1
v -0.2 1.5 0.1
v -0.2 1.6 0.1
v -0.2 1.7 0.1
v -0.2 1.8 0.1
v -0.1 1.6 0.1
v -0.1 1.7 0.1
v 0 0.1 0.1
v 0 0.6 0.1
v 0 1.5 0.1
v 0 1.6 0.1
v 0.3 0.1 0.1
v 0.3 0.6 0.1
v 0.3 1.5 0.1
v 0 0 -5.96046e-08
v 0 0.1 -5.96046e-08
v 0.3 0 -5.96046e-08
v 0.3 0.1 -5.96046e-08
v -1.1 0 -0.1
v -1.1 0.1 -0.1
v -0.7 0 -0.1
v -0.7 0.1 -0.1
v -1.1 0 0.8
v -0.7 0 0.8
v 0 0 0.8
v 0.3 0 0.8
v -0.7 0 0.5
v 0 0 0.5
v -0.7 0 0.3
v 0 0 0.3
v 0 0 -5.96046e-08
v 0.3 0 -5.96046e-08
v -1.1 0 -0.1
v -0.7 0 -0.1
v -0.4 0.8 0.5
v -0.3 0.8 0.5
v -0.4 0.8 0.4
v -0.3 0.8 0.4
v -0.1 1.4 0.7
v 0 1.4 0.7
v -0.7 1.4 0.6
v -0.6 1.4 0.6
v -0.1 1.4 0.6
v 0 1.4 0.6
v -0.7 1.4 0.1
v -0.6 1.4 0.1
v -0.2 1.5 0.7
v -0.1 1.5 0.7
v -0.6 1.5 0.6
v -0.5 1.5 0.6
v -0.1 1.5 0.6
v 0 1.5 0.6
v -0.6 1.5 0.1
v -0.5 1.5 0.1
v -0.2 1.5 0.1
v 0 1.5 0.1
v -0.3 1.6 0.7
v -0.2 1.6 0.7
v -0.5 1.6 0.6
v -0.4 1.6 0.6
v -0.5 1.6 0.5
v -0.4 1.6 0.5
v -0.3 1.6 0.1
v -0.2 1.6 0.1
v -0.4 1.7 0.7
v -0.3 1.7 0.7
v -0.4 1.7 0.6
v -0.5 1.7 0.5
v -0.4 1.7 0.5
v -0.5 1.7 0.1
v -0.3 1.7 0.1
v -1.1 0.1 0.8
v -0.7 0.1 0.8
v 0 0.1 0.8
v 0.3 0.1 0.8
v 0 0.1 0.7
v 0.3 0.1 0.7
v -1.1 0.1 0.6
v -0.7 0.1 0.6
v -1.1 0.1 0.1
v -0.7 0.1 0.1
v 0 0.1 0.1
v 0.3 0.1 0.1
v 0 0.1 -5.96046e-08
v 0.3 0.1 -5.96046e-08
v -1.1 0.1 -0.1
v -0.7 0.1 -0.1
v -0.4 0.5 0.5
v -0.3 0.5 0.5
v -0.4 0.5 0.4
v -0.3 0.5 0.4
v -0.7 1.2 0.5
v 0 1.2 0.5
v -0.7 1.2 0.3
v 0 1.2 0.3
v 0 1.5 0.7
v 0.3 1.5 0.7
v -1.1 1.5 0.6
v -0.7 1.5 0.6
v -1.1 1.5 0.1
v -0.7 1.5 0.1
v 0 1.5 0.1
v 0.3 1.5 0.1
v -0.1 1.6 0.7
v 0 1.6 0.7
v -0.7 1.6 0.6
v -0.6 1.6 0.6
v -0.7 1.6 0.1
v -0.6 1.6 0.1
v -0.1 1.6 0.1
v 0 1.6 0.1
v -0.2 1.7 0.7
v -0.1 1.7 0.7
v -0.6 1.7 0.6
v -0.5 1.7 0.6
v -0.6 1.7 0.1
v -0.5 1.7 0.1
v -0.2 1.7 0.1
v -0.1 1.7 0.1
v -0.3 1.8 0.7
v -0.2 1.8 0.7
v -0.5 1.8 0.6
v -0.4 1.8 0.6
v -0.5 1.8 0.1
v -0.4 1.8 0.1
v -0.3 1.8 0.1
v -0.2 1.8 0.1
v -0.4 1.9 0.7
v -0.3 1.9 0.7
v -0.4 1.9 0.1
v -0.3 1.9 0.1

# faces
f 3/4/1 2/4/1 1/4/1
f 4/4/1 2/4/1 3/4/1
f 5/4/1 2/4/1 4/4/1
f 6/4/1 2/4/1 5/4/1
f 7/5/1 5/5/1 4/5/1
f 8/5/1 5/5/1 7/5/1
f 9/2/1 8/2/1 7/2/1
f 10/2/1 8/2/1 9/2/1
f 13/2/1 12/2/1 11/2/1
f 14/2/1 12/2/1 13/2/1
f 17/2/1 16/2/1 15/2/1
f 18/2/1 16/2/1 17/2/1
f 21/2/1 20/2/1 19/2/1
f 22/2/1 20/2/1 21/2/1
f 25/2/1 24/2/1 23/2/1
f 27/2/1 25/2/1 23/2/1
f 27/2/1 26/2/1 25/2/1
f 28/2/1 26/2/1 27/2/1
f 31/1/1 30/1/1 29/1/1
f 32/1/1 30/1/1 31/1/1
f 35/2/1 34/2/1 33/2/1
f 36/2/1 34/2/1 35/2/1
f 39/2/1 38/2/1 37/2/1
f 40/2/1 38/2/1 39/2/1
f 43/2/1 42/2/1 41/2/1
f 44/2/1 42/2/1 43/2/1
f 49/4/1 46/4/1 45/4/1
f 50/4/1 46/4/1 49/4/1
f 51/4/1 46/4/1 50/4/1
f 52/4/1 48/4/1 47/4/1
f 53/4/1 48/4/1 52/4/1
f 54/4/1 48/4/1 53/4/1
f 55/5/1 51/5/1 50/5/1
f 56/5/1 51/5/1 55/5/1
f 57/5/1 53/5/1 52/5/1
f 58/5/1 53/5/1 57/5/1
f 59/2/1 56/2/1 55/2/1
f 60/2/1 58/2/1 57/2/1
f 61/2/1 59/2/1 55/2/1
f 61/2/1 60/2/1 59/2/1
f 62/2/1 60/2/1 61/2/1
f 63/2/1 60/2/1 62/2/1
f 64/2/1 58/2/1 60/2/1
f 64/2/1 60/2/1 63/2/1
f 65/4/2 66/4/2 69/4/2
f 69/4/2 66/4/2 70/4/2
f 70/4/2 66/4/2 71/4/2
f 67/4/2 68/4/2 72/4/2
f 72/4/2 68/4/2 73/4/2
f 73/4/2 68/4/2 74/4/2
f 70/5/2 71/5/2 75/5/2
f 75/5/2 71/5/2 76/5/2
f 72/5/2 73/5/2 77/5/2
f 77/5/2 73/5/2 78/5/2
f 75/2/2 76/2/2 79/2/2
f 77/2/2 78/2/2 80/2/2
f 75/2/2 79/2/2 81/2/2
f 79/2/2 80/2/2 81/2/2
f 80/2/2 78/2/2 82/2/2
f 81/2/2 80/2/2 82/2/2
f 83/2/2 84/2/2 85/2/2
f 85/2/2 84/2/2 86/2/2
f 87/2/2 88/2/2 89/2/2
f 89/2/2 88/2/2 90/2/2
f 90/2/2 88/2/2 91/2/2
f 91/2/2 88/2/2 92/2/2
f 93/1/2 94/1/2 95/1/2
f 95/1/2 94/1/2 96/1/2
f 97/2/2 98/2/2 99/2/2
f 99/2/2 98/2/2 100/2/2
f 101/2/2 102/2/2 103/2/2
f 103/2/2 102/2/2 104/2/2
f 105/2/2 106/2/2 107/2/2
f 107/2/2 106/2/2 108/2/2
f 109/2/2 110/2/2 111/2/2
f 111/2/2 110/2/2 112/2/2
f 113/2/2 114/2/2 115/2/2
f 115/2/2 114/2/2 116/2/2
f 117/4/2 118/4/2 119/4/2
f 119/4/2 118/4/2 120/4/2
f 120/4/2 118/4/2 121/4/2
f 121/4/2 118/4/2 122/4/2
f 120/5/2 121/5/2 123/5/2
f 123/5/2 121/5/2 124/5/2
f 123/2/2 124/2/2 125/2/2
f 125/2/2 124/2/2 126/2/2
f 129/4/3 128/4/3 127/4/3
f 130/4/3 128/4/3 129/4/3
f 133/4/3 132/4/3 131/4/3
f 134/4/3 132/4/3 133/4/3
f 138/2/3 136/2/3 135/2/3
f 139/2/3 136/2/3 138/2/3
f 140/2/3 136/2/3 139/2/3
f 142/2/3 138/2/3 137/2/3
f 142/2/3 139/2/3 138/2/3
f 143/2/3 139/2/3 142/2/3
f 144/2/3 139/2/3 143/2/3
f 146/2/3 142/2/3 141/2/3
f 146/2/3 143/2/3 142/2/3
f 147/2/3 143/2/3 146/2/3
f 148/2/3 143/2/3 147/2/3
f 151/2/3 146/2/3 145/2/3
f 151/2/3 147/2/3 146/2/3
f 152/2/3 147/2/3 151/2/3
f 153/2/3 147/2/3 152/2/3
f 154/5/3 150/5/3 149/5/3
f 155/2/3 151/2/3 150/2/3
f 155/5/3 150/5/3 154/5/3
f 155/2/3 152/2/3 151/2/3
f 156/2/3 152/2/3 155/2/3
f 160/5/3 158/5/3 157/5/3
f 161/2/3 159/2/3 158/2/3
f 161/5/3 158/5/3 160/5/3
f 162/2/3 159/2/3 161/2/3
f 163/2/3 159/2/3 162/2/3
f 165/2/3 164/2/3 163/2/3
f 165/2/3 163/2/3 162/2/3
f 166/2/3 164/2/3 165/2/3
f 167/2/3 164/2/3 166/2/3
f 169/2/3 168/2/3 167/2/3
f 169/2/3 167/2/3 166/2/3
f 170/2/3 168/2/3 169/2/3
f 171/2/3 168/2/3 170/2/3
f 173/2/3 172/2/3 171/2/3
f 173/2/3 171/2/3 170/2/3
f 174/2/3 172/2/3 173/2/3
f 175/2/3 172/2/3 174/2/3
f 180/1/3 177/1/3 176/1/3
f 180/1/3 179/1/3 178/1/3
f 180/1/3 178/1/3 177/1/3
f 181/1/3 179/1/3 180/1/3
f 182/1/3 180/1/3 176/1/3
f 183/3/3 181/3/3 180/3/3
f 183/1/3 180/1/3 182/1/3
f 184/1/3 179/1/3 181/1/3
f 184/3/3 181/3/3 183/3/3
f 185/1/3 179/1/3 184/1/3
f 186/1/3 182/1/3 176/1/3
f 187/3/3 183/3/3 182/3/3
f 187/1/3 182/1/3 186/1/3
f 188/1/3 184/1/3 183/1/3
f 188/3/3 183/3/3 187/3/3
f 189/3/3 185/3/3 184/3/3
f 189/1/3 184/1/3 188/1/3
f 190/1/3 179/1/3 185/1/3
f 190/3/3 185/3/3 189/3/3
f 191/1/3 179/1/3 190/1/3
f 192/1/3 186/1/3 176/1/3
f 192/3/3 187/3/3 186/3/3
f 193/1/3 188/1/3 187/1/3
f 193/3/3 187/3/3 192/3/3
f 194/1/3 188/1/3 193/1/3
f 195/1/3 190/1/3 189/1/3
f 196/3/3 191/3/3 190/3/3
f 196/1/3 190/1/3 195/1/3
f 197/1/3 179/1/3 191/1/3
f 197/3/3 191/3/3 196/3/3
f 198/3/3 194/3/3 193/3/3
f 198/1/3 193/1/3 192/1/3
f 199/1/3 195/1/3 194/1/3
f 199/3/3 194/3/3 198/3/3
f 200/3/3 196/3/3 195/3/3
f 200/1/3 195/1/3 199/1/3
f 201/1/3 197/1/3 196/1/3
f 201/3/3 196/3/3 200/3/3
f 202/1/3 199/1/3 198/1/3
f 202/3/3 200/3/3 199/3/3
f 203/1/3 201/1/3 200/1/3
f 203/3/3 200/3/3 202/3/3
f 204/1/3 198/1/3 192/1/3
f 204/1/3 192/1/3 176/1/3
f 204/1/3 203/1/3 202/1/3
f 204/1/3 202/1/3 198/1/3
f 205/1/3 203/1/3 204/1/3
f 206/1/3 203/1/3 205/1/3
f 207/1/3 197/1/3 201/1/3
f 207/1/3 203/1/3 206/1/3
f 207/1/3 201/1/3 203/1/3
f 207/1/3 179/1/3 197/1/3
f 210/1/3 209/1/3 208/1/3
f 211/1/3 209/1/3 210/1/3
f 212/2/4 213/2/4 214/2/4
f 214/2/4 213/2/4 215/2/4
f 216/2/4 217/2/4 218/2/4
f 218/2/4 217/2/4 219/2/4
f 220/1/4 221/1/4 224/1/4
f 222/1/4 223/1/4 224/1/4
f 221/1/4 222/1/4 224/1/4
f 224/1/4 223/1/4 225/1/4
f 225/1/4 223/1/4 226/1/4
f 226/1/4 223/1/4 227/1/4
f 228/5/4 229/5/4 231/5/4
f 229/2/4 230/2/4 232/2/4
f 231/5/4 229/5/4 232/5/4
f 232/2/4 230/2/4 233/2/4
f 233/2/4 230/2/4 234/2/4
f 234/2/4 235/2/4 236/2/4
f 233/2/4 234/2/4 236/2/4
f 236/2/4 235/2/4 237/2/4
f 237/2/4 235/2/4 238/2/4
f 238/2/4 239/2/4 240/2/4
f 237/2/4 238/2/4 240/2/4
f 240/2/4 239/2/4 241/2/4
f 241/2/4 242/2/4 243/2/4
f 241/2/4 243/2/4 246/2/4
f 243/2/4 244/2/4 246/2/4
f 246/2/4 244/2/4 247/2/4
f 247/2/4 244/2/4 248/2/4
f 245/2/4 246/2/4 250/2/4
f 246/2/4 247/2/4 250/2/4
f 250/2/4 247/2/4 251/2/4
f 251/2/4 247/2/4 252/2/4
f 249/2/4 250/2/4 253/2/4
f 250/2/4 251/2/4 253/2/4
f 253/2/4 251/2/4 254/2/4
f 249/2/4 253/2/4 257/2/4
f 257/2/4 253/2/4 258/2/4
f 255/5/4 256/5/4 259/5/4
f 256/2/4 257/2/4 260/2/4
f 259/5/4 256/5/4 260/5/4
f 260/2/4 257/2/4 261/2/4
f 262/4/4 263/4/4 264/4/4
f 264/4/4 263/4/4 265/4/4
f 266/4/4 267/4/4 268/4/4
f 268/4/4 267/4/4 269/4/4
f 274/4/5 271/4/5 270/4/5
f 275/4/5 273/4/5 272/4/5
f 276/4/5 274/4/5 270/4/5
f 276/1/5 275/1/5 274/1/5
f 277/4/5 273/4/5 275/4/5
f 277/1/5 275/1/5 276/1/5
f 278/4/5 273/4/5 277/4/5
f 279/4/5 273/4/5 278/4/5
f 280/4/5 276/4/5 270/4/5
f 281/4/5 276/4/5 280/4/5
f 284/1/5 283/1/5 282/1/5
f 285/1/5 283/1/5 284/1/5
f 290/2/5 287/2/5 286/2/5
f 291/2/5 287/2/5 290/2/5
f 292/2/5 289/2/5 288/2/5
f 293/2/5 289/2/5 292/2/5
f 298/2/5 295/2/5 294/2/5
f 300/2/5 297/2/5 296/2/5
f 301/2/5 297/2/5 300/2/5
f 302/2/5 299/2/5 298/2/5
f 302/2/5 298/2/5 294/2/5
f 303/2/5 299/2/5 302/2/5
f 308/2/5 307/2/5 306/2/5
f 309/2/5 307/2/5 308/2/5
f 310/2/5 305/2/5 304/2/5
f 311/2/5 305/2/5 310/2/5
f 314/2/5 313/2/5 312/2/5
f 316/2/5 313/2/5 314/2/5
f 317/2/5 316/2/5 315/2/5
f 318/2/5 313/2/5 316/2/5
f 318/2/5 316/2/5 317/2/5
f 321/4/6 322/4/6 323/4/6
f 323/4/6 322/4/6 324/4/6
f 319/4/6 320/4/6 325/4/6
f 325/4/6 320/4/6 326/4/6
f 329/4/6 330/4/6 331/4/6
f 331/4/6 330/4/6 332/4/6
f 327/4/6 328/4/6 333/4/6
f 333/4/6 328/4/6 334/4/6
f 335/1/6 336/1/6 337/1/6
f 337/1/6 336/1/6 338/1/6
f 339/1/6 340/1/6 341/1/6
f 341/1/6 340/1/6 342/1/6
f 345/2/6 346/2/6 347/2/6
f 347/2/6 346/2/6 348/2/6
f 343/2/6 344/2/6 349/2/6
f 349/2/6 344/2/6 350/2/6
f 353/2/6 354/2/6 355/2/6
f 355/2/6 354/2/6 356/2/6
f 351/2/6 352/2/6 357/2/6
f 357/2/6 352/2/6 358/2/6
f 361/2/6 362/2/6 363/2/6
f 363/2/6 362/2/6 364/2/6
f 359/2/6 360/2/6 365/2/6
f 365/2/6 360/2/6 366/2/6
f 369/2/6 370/2/6 371/2/6
f 371/2/6 370/2/6 372/2/6
f 367/2/6 368/2/6 373/2/6
f 373/2/6 368/2/6 374/2/6
f 375/2/6 376/2/6 377/2/6
f 377/2/6 376/2/6 378/2/6
